<svg xmlns="http://www.w3.org/2000/svg" viewBox="0 0 600 460">
	<style>
		.type {
			fill: #3A1D52;
		}

		@media (prefers-color-scheme: dark) {
			.type {
				fill: #FFFFFF;
			}
		}
	</style>
	<g fill="none" fill-rule="evenodd">
		<path class="type" d="M118.611 392.67h3.106a191.308 191.308 0 0 0 2.964 5.18c.927 1.56 1.938 3.42 3.032 5.582v-5.4c0-2-.023-3.451-.068-4.356h-1.006a1.732 1.732 0 0 1-.127-.615c0-.137.034-.236.102-.298.069-.062.18-.093.337-.093h3.672c.078.195.117.384.117.566 0 .163-.032.277-.097.342-.066.065-.18.098-.342.098h-.791c-.046.905-.069 2.396-.069 4.472v7.061c0 .384-.057.628-.17.732-.114.105-.38.157-.796.157-.808 0-1.272-.031-1.392-.093-.12-.062-.911-1.271-2.373-3.628-1.462-2.357-2.687-4.56-3.677-6.611 0 5.247.023 8.323.069 9.228h.957c.084.195.127.384.127.567 0 .162-.033.276-.098.341s-.182.098-.352.098h-3.632a1.732 1.732 0 0 1-.127-.615c0-.137.034-.236.102-.298.068-.062.18-.093.337-.093h.82c.046-.905.069-3.226.069-6.963 0-1.998-.026-3.45-.078-4.355h-.928a1.732 1.732 0 0 1-.127-.615c0-.137.034-.236.102-.298.069-.062.181-.093.337-.093zm20.267 12.217c.742 0 1.28-.28 1.611-.84.332-.56.499-1.423.499-2.588 0-1.341-.171-2.337-.513-2.988-.342-.651-.93-.977-1.763-.977-.742 0-1.28.28-1.611.84-.332.56-.498 1.426-.498 2.598 0 1.334.17 2.327.512 2.978.342.651.93.977 1.763.977zm-.371 1.308c-1.413 0-2.451-.374-3.115-1.123-.664-.748-.996-1.878-.996-3.388 0-1.739.402-3.09 1.206-4.053.804-.964 1.964-1.445 3.481-1.445 1.413 0 2.451.374 3.115 1.123.665.748.997 1.881.997 3.398 0 1.732-.402 3.08-1.207 4.043-.804.964-1.964 1.445-3.481 1.445zm8.236-9.375c0-.175.068-.288.205-.337.136-.048.999-.099 2.588-.151.039.3.039.7 0 1.201.722-.488 1.417-.827 2.085-1.015.667-.19 1.274-.284 1.82-.284.183 0 .305.022.367.064s.093.135.093.278c0 .28-.044.58-.132.899-.088.319-.194.52-.317.605-.124.085-.33.15-.616.195-.286.046-.454.056-.503.03-.048-.026-.197-.205-.444-.537-.58 0-1.048.183-1.406.551-.358.368-.537 1.109-.537 2.222.006 1.999.032 3.483.078 4.453h1.377c.078.17.117.352.117.547 0 .176-.036.296-.107.361-.072.065-.209.098-.41.098h-4.131a1.562 1.562 0 0 1-.127-.586c0-.143.035-.249.107-.317.072-.069.189-.103.352-.103h.673c.052-.97.079-2.24.079-3.808 0-1.921-.075-3.034-.225-3.34-.15-.306-.436-.46-.86-.46a1.33 1.33 0 0 1-.126-.566zm18.938 2.93c0 2.728.023 4.476.069 5.244h1.035c.084.17.127.352.127.547 0 .176-.036.296-.108.361-.071.065-.211.098-.42.098h-3.447a1.674 1.674 0 0 1-.117-.586c0-.143.034-.249.102-.317.069-.069.188-.103.357-.103h.332c.046-.957.068-2.295.068-4.014 0-1.34-.141-2.233-.425-2.675-.283-.443-.74-.664-1.372-.664-.41 0-.812.153-1.206.459-.394.306-.59.856-.59 1.65v2.06a68.2 68.2 0 0 0 .068 3.184h.79c.079.17.118.352.118.547 0 .176-.036.296-.107.361-.072.065-.209.098-.41.098H157a1.562 1.562 0 0 1-.127-.586c0-.143.035-.249.107-.317.072-.069.189-.103.352-.103h.673a76.49 76.49 0 0 0 .079-3.808c0-1.921-.075-3.034-.225-3.34-.15-.306-.436-.46-.86-.46a1.33 1.33 0 0 1-.126-.566c0-.175.068-.288.205-.337.136-.048 1-.099 2.588-.151.039.3.039.684 0 1.152.644-.43 1.264-.745 1.86-.947.596-.202 1.147-.303 1.655-.303.645 0 1.14.113 1.485.337.345.225.58.51.703.855a7.315 7.315 0 0 1 1.762-.894c.59-.198 1.132-.298 1.626-.298.801 0 1.421.2 1.86.601.44.4.66 1.164.66 2.29 0 3.503.05 5.358.151 5.566.101.209.334.31.699.303.071.189.107.378.107.567 0 .175-.055.293-.166.351-.11.059-.316.088-.615.088-.905 0-1.459-.011-1.66-.034-.202-.023-.339-.091-.41-.205-.072-.114-.108-.305-.108-.572v-4.209c0-1.34-.142-2.233-.425-2.675-.283-.443-.74-.664-1.372-.664-.41 0-.812.153-1.206.459-.394.306-.59.856-.59 1.65zm16 5.469a7.408 7.408 0 0 1-1.685.727 6.102 6.102 0 0 1-1.694.25c-.88 0-1.534-.207-1.963-.62-.43-.414-.645-1.028-.645-1.842 0-.996.355-1.757 1.065-2.285.71-.527 1.806-.79 3.29-.79h1.436c-.039-1.147-.203-1.944-.493-2.393-.29-.45-.802-.674-1.538-.674-.39 0-.765.039-1.123.117-.189.378-.301.58-.337.605-.036.026-.223.083-.562.171-.338.088-.574.072-.708-.048-.133-.12-.27-.34-.41-.66-.14-.319-.21-.576-.21-.771 0-.13.054-.231.161-.303.108-.071.546-.16 1.314-.264a18.26 18.26 0 0 1 2.451-.156c1.152 0 2.004.199 2.554.596.55.397.825 1.126.825 2.187v3.008c0 1.393.06 2.243.18 2.549.121.306.321.43.601.371a.874.874 0 0 1 .117.42c0 .221-.138.39-.415.508-.276.117-.649.176-1.118.176-.228 0-.402-.028-.522-.083-.12-.056-.311-.321-.572-.796zm-.196-3.301c-.56-.098-1.14-.147-1.738-.147-.742 0-1.262.124-1.558.372-.296.247-.444.638-.444 1.171 0 .521.132.914.395 1.177.264.264.673.396 1.226.396.43 0 .83-.085 1.201-.254.371-.17.617-.405.737-.708.12-.303.181-.78.181-1.43v-.577zm7.396-1.514c0-2.754-.013-4.507-.04-5.258-.025-.752-.072-1.242-.14-1.47-.07-.228-.181-.375-.338-.44a1.623 1.623 0 0 0-.615-.097 1.533 1.533 0 0 1-.127-.596c0-.202.083-.329.25-.38.165-.053.7-.079 1.606-.079.514 0 .862.024 1.044.073.183.05.287.14.313.274.026.133.039.363.039.688v8.174a84.79 84.79 0 0 0 .078 3.701h1.084c.078.17.117.352.117.547 0 .176-.035.296-.107.361s-.208.098-.41.098h-3.887a1.562 1.562 0 0 1-.127-.586c0-.143.036-.249.108-.317.071-.069.188-.103.351-.103h.723c.052-.905.078-2.435.078-4.59zm8.45-5.742c-.423 0-.735-.088-.937-.264-.202-.175-.303-.43-.303-.761.007-.358.137-.645.39-.86.255-.215.613-.322 1.075-.322.456 0 .781.093.976.278.196.186.293.435.293.747 0 .352-.12.637-.36.855-.242.218-.62.327-1.134.327zm1.387 10.332h1.035c.085.17.127.352.127.547 0 .176-.036.296-.107.361-.072.065-.212.098-.42.098h-3.838a1.674 1.674 0 0 1-.117-.586c0-.143.034-.249.102-.317.069-.069.187-.103.357-.103h.722c.046-.905.069-1.966.069-3.183 0-1.485-.012-2.476-.035-2.974-.022-.498-.076-.842-.16-1.03-.085-.19-.204-.306-.357-.352a2.032 2.032 0 0 0-.571-.068.89.89 0 0 1-.127-.479c0-.267.127-.43.38-.488.254-.059.746-.088 1.475-.088.514 0 .863.024 1.045.073.182.05.287.14.313.274.026.133.039.363.039.688v4.444c0 1.217.022 2.278.068 3.183zm11.868-8.017c0 .28-.156.649-.468 1.108-.313.459-.775 1.156-1.387 2.09-.612.934-1.21 1.867-1.792 2.798-.583.93-.887 1.572-.913 1.923h1.767c.795 0 1.761-.22 2.9-.664.17.339.255.684.255 1.036 0 .267-.082.455-.244.566-.163.11-.492.166-.987.166h-6.025c-.417 0-.625-.176-.625-.527 0-.196.084-.422.254-.68.169-.256.71-1.03 1.62-2.318.912-1.29 1.6-2.315 2.066-3.077.466-.761.793-1.383.982-1.865h-2.403c-.436 0-1.13.238-2.08.713-.273-.39-.41-.778-.41-1.162 0-.228.065-.394.195-.498.13-.104.375-.156.733-.156h5.82c.274 0 .466.04.576.122.111.081.166.223.166.425zm8.07.517c-.651 0-1.146.233-1.485.698-.338.466-.524 1.193-.556 2.183h1.006c1.067 0 1.795-.021 2.182-.063.388-.043.612-.113.674-.21.062-.098.093-.28.093-.547 0-.645-.163-1.15-.488-1.514-.326-.365-.801-.547-1.426-.547zm.371-1.308c1.21 0 2.11.286 2.695.859.586.573.88 1.517.88 2.832 0 .58-.105.983-.313 1.21-.209.229-.664.343-1.368.343h-4.316c.013 1.06.226 1.894.64 2.5.413.605 1.144.908 2.192.908.977 0 1.885-.254 2.725-.762.28.28.42.576.42.889 0 .436-.36.742-1.08.918-.719.176-1.531.263-2.436.263-1.667 0-2.863-.353-3.589-1.06-.726-.705-1.089-1.895-1.089-3.568 0-1.648.409-2.948 1.226-3.902.817-.954 1.955-1.43 3.413-1.43zm16.871 4.97.01 3.155c.215.175.49.315.825.42.336.104.708.156 1.119.156.82 0 1.404-.266 1.752-.796.349-.53.523-1.476.523-2.837-.007-1.237-.182-2.173-.527-2.808-.345-.634-.892-.952-1.641-.952-.488 0-.885.1-1.191.298-.306.199-.526.48-.66.845-.133.364-.203 1.204-.21 2.52zm-1.992-.752c0-2.754-.011-4.507-.034-5.258-.023-.752-.068-1.242-.137-1.47-.068-.228-.182-.375-.341-.44a1.63 1.63 0 0 0-.61-.097 1.533 1.533 0 0 1-.128-.596c0-.202.082-.329.244-.38.163-.053.7-.079 1.612-.079.514 0 .862.024 1.045.073.182.05.286.14.312.274.026.133.04.363.04.688l-.138 3.945c.41-.28.878-.496 1.402-.649a6.285 6.285 0 0 1 1.763-.23c1.035 0 1.86.34 2.475 1.021.615.68.923 1.825.923 3.433 0 1.823-.402 3.204-1.206 4.145-.804.94-1.978 1.411-3.52 1.411a7.214 7.214 0 0 1-1.46-.136c-.44-.092-.783-.196-1.03-.313l-.304.303c-.436 0-.708-.049-.815-.147-.107-.097-.161-.28-.161-.547 0-.227.011-.78.034-1.66.023-.879.034-1.976.034-3.29zm11.976-3.584c0-.175.068-.288.205-.337.137-.048 1-.099 2.588-.151.04.3.04.7 0 1.201.723-.488 1.418-.827 2.085-1.015.667-.19 1.274-.284 1.821-.284.183 0 .305.022.366.064.062.042.093.135.093.278 0 .28-.044.58-.132.899-.087.319-.193.52-.317.605-.124.085-.329.15-.615.195-.287.046-.454.056-.503.03-.049-.026-.197-.205-.444-.537-.58 0-1.049.183-1.407.551-.358.368-.537 1.109-.537 2.222.007 1.999.033 3.483.078 4.453h1.377c.078.17.117.352.117.547 0 .176-.035.296-.107.361s-.208.098-.41.098h-4.131a1.562 1.562 0 0 1-.127-.586c0-.143.036-.249.107-.317.072-.069.19-.103.352-.103h.674c.052-.97.078-2.24.078-3.808 0-1.921-.075-3.034-.225-3.34-.15-.306-.436-.46-.859-.46a1.33 1.33 0 0 1-.127-.566zm14.613 8.067c.742 0 1.279-.28 1.61-.84.333-.56.499-1.423.499-2.588 0-1.341-.171-2.337-.513-2.988-.342-.651-.93-.977-1.762-.977-.743 0-1.28.28-1.612.84-.332.56-.498 1.426-.498 2.598 0 1.334.171 2.327.513 2.978.342.651.93.977 1.763.977zm-.372 1.308c-1.412 0-2.45-.374-3.115-1.123-.664-.748-.996-1.878-.996-3.388 0-1.739.402-3.09 1.206-4.053.804-.964 1.965-1.445 3.482-1.445 1.412 0 2.45.374 3.115 1.123.664.748.996 1.881.996 3.398 0 1.732-.402 3.08-1.206 4.043-.804.964-1.965 1.445-3.482 1.445zm21.947-8.662c-.215.658-.677 2.13-1.387 4.42-.71 2.288-1.185 3.567-1.426 3.837-.24.27-.576.405-1.005.405-.651 0-1.008-.035-1.07-.107-.062-.072-.363-1.348-.903-3.828-.54-2.48-.84-3.72-.899-3.72-.058 0-.35 1.14-.874 3.422s-.904 3.558-1.142 3.828c-.238.27-.562.405-.972.405-.814 0-1.253-.035-1.318-.107-.065-.072-.361-1.218-.889-3.438-.527-2.22-.86-3.545-1-3.974-.14-.43-.268-.731-.382-.904-.114-.172-.228-.28-.341-.322-.114-.042-.285-.063-.513-.063a1.352 1.352 0 0 1-.127-.576c0-.215.094-.349.283-.4.189-.053.677-.079 1.465-.079.469 0 .793.033.972.098a.64.64 0 0 1 .38.341c.075.163.16.546.254 1.148.095.602.339 1.844.733 3.726.394 1.881.622 2.822.683 2.822.062 0 .336-1.076.82-3.228.486-2.151.83-3.77 1.031-4.858 1.185-.033 1.87-.025 2.056.024a.594.594 0 0 1 .4.318c.081.162.173.543.273 1.142.101.6.359 1.85.772 3.75.413 1.901.651 2.852.713 2.852.062 0 .335-.998.82-2.993.485-1.996.763-3.31.835-3.94h-.557a1.396 1.396 0 0 1-.126-.577c0-.195.037-.332.112-.41.075-.078.2-.117.376-.117h2.53c.084.182.126.377.126.586 0 .201-.042.338-.127.41-.085.071-.231.107-.44.107h-.136zm8.245-1.347c.86 0 1.542.083 2.046.249.505.166.757.434.757.805 0 .384-.163.765-.488 1.143-1.276-.593-2.285-.889-3.028-.889-.501 0-.877.095-1.128.283-.25.19-.376.463-.376.82 0 .372.142.678.425.919.283.24.864.524 1.743.85 1.107.39 1.895.795 2.364 1.215.468.42.703.998.703 1.733 0 .931-.358 1.644-1.074 2.14-.717.494-1.735.741-3.057.741-1.01 0-1.779-.071-2.31-.215-.53-.143-.796-.442-.796-.898 0-.332.127-.658.381-.977 1.114.521 2.149.782 3.106.782.599 0 1.045-.098 1.338-.293.293-.196.44-.508.44-.938 0-.462-.224-.828-.67-1.098-.446-.27-1.144-.591-2.095-.962-.937-.358-1.585-.736-1.943-1.133-.358-.397-.537-.902-.537-1.514 0-.827.355-1.494 1.064-2.002.71-.508 1.755-.761 3.135-.761zm10.882 1.308c-.65 0-1.146.233-1.484.698-.339.466-.524 1.193-.557 2.183h1.006c1.068 0 1.795-.021 2.183-.063.387-.043.612-.113.674-.21.061-.098.092-.28.092-.547 0-.645-.162-1.15-.488-1.514-.325-.365-.8-.547-1.426-.547zm.371-1.308c1.211 0 2.11.286 2.696.859.586.573.879 1.517.879 2.832 0 .58-.105.983-.313 1.21-.208.229-.664.343-1.367.343h-4.317c.014 1.06.227 1.894.64 2.5.414.605 1.144.908 2.193.908a5.17 5.17 0 0 0 2.724-.762c.28.28.42.576.42.889 0 .436-.36.742-1.08.918-.718.176-1.53.263-2.436.263-1.666 0-2.863-.353-3.588-1.06-.726-.705-1.09-1.895-1.09-3.568 0-1.648.41-2.948 1.226-3.902.817-.954 1.955-1.43 3.413-1.43zm7.191.634c0-.175.068-.288.205-.337.137-.048 1-.099 2.588-.151.039.3.039.7 0 1.201.723-.488 1.418-.827 2.085-1.015.667-.19 1.274-.284 1.821-.284.182 0 .305.022.366.064.062.042.093.135.093.278 0 .28-.044.58-.132.899-.088.319-.193.52-.317.605-.124.085-.329.15-.615.195-.287.046-.454.056-.503.03-.049-.026-.197-.205-.445-.537-.579 0-1.048.183-1.406.551-.358.368-.537 1.109-.537 2.222.007 1.999.033 3.483.078 4.453h1.377c.078.17.117.352.117.547 0 .176-.035.296-.107.361s-.208.098-.41.098h-4.131a1.562 1.562 0 0 1-.127-.586c0-.143.036-.249.107-.317.072-.069.19-.103.352-.103h.674c.052-.97.078-2.24.078-3.808 0-1.921-.075-3.034-.225-3.34-.15-.306-.436-.46-.86-.46a1.33 1.33 0 0 1-.126-.566zm14.378-.634c.86 0 1.541.083 2.046.249.505.166.757.434.757.805 0 .384-.163.765-.488 1.143-1.276-.593-2.286-.889-3.028-.889-.501 0-.877.095-1.128.283-.25.19-.376.463-.376.82 0 .372.142.678.425.919.283.24.864.524 1.743.85 1.107.39 1.895.795 2.364 1.215.468.42.703.998.703 1.733 0 .931-.358 1.644-1.075 2.14-.716.494-1.735.741-3.056.741-1.01 0-1.78-.071-2.31-.215-.53-.143-.796-.442-.796-.898 0-.332.127-.658.381-.977 1.114.521 2.149.782 3.106.782.599 0 1.045-.098 1.338-.293.293-.196.439-.508.439-.938 0-.462-.223-.828-.669-1.098-.446-.27-1.144-.591-2.095-.962-.937-.358-1.585-.736-1.943-1.133-.358-.397-.537-.902-.537-1.514 0-.827.355-1.494 1.064-2.002.71-.508 1.755-.761 3.135-.761zm7.454.214a85.629 85.629 0 0 0-.4-4.13c.313-.124.703-.186 1.172-.186.508 0 .78.182.815.547.036.364-.096 1.62-.395 3.77h-1.192zm16.98 1.094c-.782 0-1.347.272-1.695.816-.348.543-.522 1.482-.522 2.817 0 1.172.166 2.091.498 2.759.332.667.891 1 1.68 1a2.6 2.6 0 0 0 1.142-.248c.345-.166.58-.384.708-.655.127-.27.19-.935.19-1.997v-3.984a4.546 4.546 0 0 0-.854-.352 3.867 3.867 0 0 0-1.148-.156zm2.275 7.725c-.593.351-1.146.602-1.66.752a5.665 5.665 0 0 1-1.592.224c-1.107 0-1.958-.332-2.554-.996-.596-.664-.894-1.816-.894-3.457 0-1.81.398-3.188 1.192-4.136.794-.947 1.982-1.42 3.564-1.42.378 0 .694.02.948.058.254.04.494.088.722.147 0-.482-.011-.998-.034-1.548-.023-.55-.068-.94-.137-1.167-.068-.228-.182-.375-.341-.44a1.63 1.63 0 0 0-.61-.097 1.533 1.533 0 0 1-.128-.596c0-.202.082-.329.244-.38.163-.053.7-.079 1.612-.079.514 0 .862.024 1.045.073.182.05.286.14.312.274.026.133.04.363.04.688v6.992c0 2.487.056 3.936.17 4.346.114.41.291.59.532.537.091.15.137.296.137.44 0 .182-.216.354-.65.517-.432.163-.785.244-1.059.244a.55.55 0 0 1-.41-.17c-.11-.115-.26-.383-.45-.806zm10.5-7.725c-.65 0-1.145.233-1.483.698-.339.466-.525 1.193-.557 2.183h1.006c1.067 0 1.795-.021 2.182-.063.388-.043.612-.113.674-.21.062-.098.093-.28.093-.547 0-.645-.163-1.15-.488-1.514-.326-.365-.801-.547-1.426-.547zm.372-1.308c1.21 0 2.11.286 2.695.859.586.573.88 1.517.88 2.832 0 .58-.105.983-.313 1.21-.209.229-.664.343-1.367.343h-4.317c.013 1.06.226 1.894.64 2.5.413.605 1.144.908 2.192.908.977 0 1.885-.254 2.725-.762.28.28.42.576.42.889 0 .436-.36.742-1.08.918-.719.176-1.531.263-2.436.263-1.667 0-2.863-.353-3.589-1.06-.726-.705-1.089-1.895-1.089-3.568 0-1.648.409-2.948 1.226-3.902.817-.954 1.955-1.43 3.413-1.43zm10.452 8.808h1.426c.078.17.117.352.117.547 0 .176-.036.296-.107.361-.072.065-.208.098-.41.098h-4.229a1.562 1.562 0 0 1-.127-.586c0-.143.036-.249.108-.317.071-.069.188-.103.351-.103h.723a56.3 56.3 0 0 0 .078-3.183v-4.229h-1.143a2.156 2.156 0 0 1-.117-.684c0-.162.036-.281.108-.356.071-.075.192-.112.361-.112h.791c.02-1.634.348-2.767.986-3.399.638-.631 1.647-.947 3.028-.947.787 0 1.386.065 1.797.195.41.13.615.371.615.723 0 .312-.134.641-.4.986-1.094-.43-1.973-.644-2.637-.644-.573 0-.95.19-1.128.571-.18.38-.269 1.037-.269 1.968v.547h2.705c.078.215.117.442.117.683 0 .19-.035.314-.107.376s-.215.093-.43.093h-2.285v4.229c0 1.217.026 2.278.078 3.183zm11.986.225a7.408 7.408 0 0 1-1.685.727 6.102 6.102 0 0 1-1.694.25c-.879 0-1.533-.207-1.963-.62-.43-.414-.644-1.028-.644-1.842 0-.996.354-1.757 1.064-2.285.71-.527 1.807-.79 3.291-.79h1.436c-.04-1.147-.204-1.944-.494-2.393-.29-.45-.802-.674-1.538-.674-.39 0-.765.039-1.123.117-.189.378-.3.58-.337.605-.035.026-.223.083-.561.171-.339.088-.575.072-.708-.048-.134-.12-.27-.34-.41-.66-.14-.319-.21-.576-.21-.771 0-.13.053-.231.16-.303.108-.071.546-.16 1.314-.264a18.26 18.26 0 0 1 2.451-.156c1.153 0 2.004.199 2.554.596.55.397.825 1.126.825 2.187v3.008c0 1.393.06 2.243.181 2.549.12.306.32.43.6.371a.874.874 0 0 1 .118.42c0 .221-.139.39-.415.508-.277.117-.65.176-1.118.176-.228 0-.402-.028-.523-.083-.12-.056-.31-.321-.571-.796zm-.195-3.301c-.56-.098-1.14-.147-1.739-.147-.742 0-1.261.124-1.557.372-.297.247-.445.638-.445 1.171 0 .521.132.914.396 1.177.263.264.672.396 1.225.396.43 0 .83-.085 1.202-.254.37-.17.616-.405.737-.708.12-.303.18-.78.18-1.43v-.577zm14.622.156c0 1.309.052 2.113.156 2.412.104.3.313.433.625.4.078.157.117.31.117.46 0 .24-.185.426-.556.556-.371.13-.733.196-1.084.196-.228 0-.394-.046-.498-.137-.105-.091-.267-.339-.489-.742-.52.3-1.06.537-1.616.713a5.787 5.787 0 0 1-1.753.263c-.807 0-1.434-.223-1.88-.669-.446-.446-.669-1.264-.669-2.456 0-2.324-.011-3.735-.034-4.233-.023-.498-.076-.842-.161-1.03-.085-.19-.195-.306-.332-.352a1.413 1.413 0 0 0-.45-.068.854.854 0 0 1-.126-.46c0-.227.16-.383.478-.468.32-.085.762-.127 1.328-.127.45 0 .757.028.923.083.166.055.27.147.313.273.042.127.063.555.063 1.285v3.681c0 1.335.148 2.207.445 2.617.296.41.708.616 1.235.616.371 0 .732-.078 1.084-.235.352-.156.588-.374.708-.654s.18-.82.18-1.621c0-1.862-.008-3.034-.024-3.516-.016-.481-.062-.825-.137-1.03-.074-.205-.174-.33-.297-.376a1.406 1.406 0 0 0-.479-.068.854.854 0 0 1-.127-.46c0-.227.168-.383.503-.468.335-.085.754-.127 1.255-.127.45 0 .757.028.923.083.166.055.27.155.312.298.043.143.064.58.064 1.308v4.053zm5.491-1.67c0-2.754-.013-4.507-.039-5.258-.026-.752-.073-1.242-.141-1.47-.069-.228-.181-.375-.337-.44a1.623 1.623 0 0 0-.616-.097 1.533 1.533 0 0 1-.127-.596c0-.202.083-.329.25-.38.165-.053.701-.079 1.606-.079.514 0 .863.024 1.045.073.182.05.286.14.312.274.026.133.04.363.04.688v8.174a84.79 84.79 0 0 0 .078 3.701h1.084c.078.17.117.352.117.547 0 .176-.036.296-.108.361-.071.065-.208.098-.41.098h-3.887a1.562 1.562 0 0 1-.127-.586c0-.143.036-.249.108-.317.071-.069.189-.103.351-.103h.723c.052-.905.078-2.435.078-4.59zm7.015-3.974h.664l.791-2.774c.274.085.506.186.698.303.192.117.334.256.425.415.091.16.137.711.137 1.655v.4h3.213c.078.216.117.443.117.684 0 .19-.036.314-.107.376-.072.062-.215.093-.43.093h-2.793v4.62c0 1.1.1 1.824.303 2.172.201.348.506.532.913.552.407.02.906-.114 1.499-.4.143.214.215.449.215.703 0 .345-.19.576-.572.693-.38.117-.981.176-1.801.176-.892 0-1.542-.183-1.949-.547-.407-.365-.61-1.045-.61-2.041v-2.295a60.1 60.1 0 0 0-.107-3.633h-.957a2.156 2.156 0 0 1-.118-.684c0-.162.036-.281.108-.356.071-.075.192-.112.361-.112zm20.407-.244c.86 0 1.541.083 2.046.249.504.166.756.434.756.805 0 .384-.162.765-.488 1.143-1.276-.593-2.285-.889-3.027-.889-.501 0-.877.095-1.128.283-.25.19-.376.463-.376.82 0 .372.142.678.425.919.283.24.864.524 1.743.85 1.107.39 1.894.795 2.363 1.215.469.42.703.998.703 1.733 0 .931-.358 1.644-1.074 2.14-.716.494-1.735.741-3.057.741-1.009 0-1.779-.071-2.31-.215-.53-.143-.795-.442-.795-.898 0-.332.127-.658.38-.977 1.114.521 2.15.782 3.106.782.6 0 1.045-.098 1.338-.293.293-.196.44-.508.44-.938 0-.462-.223-.828-.67-1.098-.445-.27-1.144-.591-2.094-.962-.938-.358-1.585-.736-1.943-1.133-.358-.397-.538-.902-.538-1.514 0-.827.355-1.494 1.065-2.002.71-.508 1.754-.761 3.135-.761zm7.015.244h.664l.79-2.774c.274.085.507.186.699.303.192.117.334.256.425.415.09.16.136.711.136 1.655v.4h3.213c.078.216.117.443.117.684 0 .19-.035.314-.107.376s-.215.093-.43.093h-2.793v4.62c0 1.1.101 1.824.303 2.172.202.348.506.532.913.552.407.02.907-.114 1.5-.4.142.214.214.449.214.703 0 .345-.19.576-.571.693-.381.117-.982.176-1.802.176-.892 0-1.541-.183-1.948-.547-.407-.365-.61-1.045-.61-2.041v-2.295c0-1.25-.036-2.461-.108-3.633h-.957a2.156 2.156 0 0 1-.117-.684c0-.162.036-.281.107-.356.072-.075.192-.112.362-.112zm17.454 1.103c-.313.957-.94 2.969-1.88 6.035-.94 3.067-1.637 4.877-2.09 5.43-.452.553-.963.908-1.533 1.065-.57.156-1.22.234-1.948.234-.71 0-1.17-.052-1.382-.156-.212-.105-.318-.297-.318-.577 0-.345.111-.657.332-.937 1.224.247 2.126.34 2.706.278.579-.062 1.155-.99 1.728-2.788-.54-.02-.833-.045-.879-.078-.045-.032-.387-1.13-1.025-3.291-.638-2.161-1.037-3.481-1.197-3.96-.159-.478-.286-.81-.38-.996-.095-.186-.214-.3-.357-.342a2.013 2.013 0 0 0-.556-.063 1.636 1.636 0 0 1-.127-.596c0-.221.11-.353.332-.395.221-.043.67-.064 1.347-.064.521 0 .873.031 1.055.093a.6.6 0 0 1 .38.342c.072.166.181.626.328 1.381.146.756.456 2.014.928 3.775.472 1.76.737 2.641.796 2.641.058 0 .354-1.014.888-3.042.534-2.028.84-3.357.918-3.989h-.527a1.495 1.495 0 0 1-.117-.576c0-.195.037-.332.112-.41.075-.078.197-.117.366-.117h2.754c.085.182.127.377.127.586 0 .201-.042.338-.127.41-.084.071-.231.107-.44.107h-.214zm4.837 2.871c0-2.754-.013-4.507-.04-5.258-.025-.752-.072-1.242-.14-1.47-.07-.228-.181-.375-.338-.44a1.623 1.623 0 0 0-.615-.097 1.533 1.533 0 0 1-.127-.596c0-.202.083-.329.25-.38.165-.053.7-.079 1.606-.079.514 0 .862.024 1.045.073.182.05.286.14.312.274.026.133.04.363.04.688v8.174a84.79 84.79 0 0 0 .077 3.701h1.084c.078.17.117.352.117.547 0 .176-.035.296-.107.361s-.208.098-.41.098h-3.887a1.562 1.562 0 0 1-.127-.586c0-.143.036-.249.108-.317.071-.069.188-.103.351-.103h.723c.052-.905.078-2.435.078-4.59zm10.882-2.91c-.651 0-1.146.233-1.484.698-.339.466-.524 1.193-.557 2.183h1.006c1.068 0 1.795-.021 2.182-.063.388-.043.612-.113.674-.21.062-.098.093-.28.093-.547 0-.645-.163-1.15-.488-1.514-.326-.365-.801-.547-1.426-.547zm.371-1.308c1.211 0 2.11.286 2.695.859.586.573.88 1.517.88 2.832 0 .58-.105.983-.313 1.21-.209.229-.664.343-1.367.343h-4.317c.013 1.06.226 1.894.64 2.5.413.605 1.144.908 2.192.908.977 0 1.885-.254 2.725-.762.28.28.42.576.42.889 0 .436-.36.742-1.08.918-.719.176-1.53.263-2.436.263-1.667 0-2.863-.353-3.589-1.06-.726-.705-1.089-1.895-1.089-3.568 0-1.648.409-2.948 1.226-3.902.817-.954 1.955-1.43 3.413-1.43zM85.156 356.125c0 7.365.062 12.085.185 14.16h2.795c.228.456.343.948.343 1.476 0 .474-.097.8-.29.975-.194.176-.572.264-1.134.264h-9.308c-.21-.563-.316-1.09-.316-1.582 0-.387.092-.672.277-.857.184-.185.505-.277.962-.277h.896c.123-2.584.185-6.196.185-10.837 0-3.62-.382-6.029-1.147-7.224-.765-1.196-2-1.793-3.705-1.793-1.107 0-2.192.413-3.256 1.239-1.063.826-1.595 2.311-1.595 4.456v5.563c0 3.112.061 5.977.184 8.596h2.136c.211.457.317.95.317 1.477 0 .474-.097.8-.29.975-.194.176-.563.264-1.108.264h-9.571c-.229-.563-.343-1.09-.343-1.582 0-.387.097-.672.29-.857.193-.185.51-.277.95-.277h1.819c.14-2.795.21-6.222.21-10.283 0-5.186-.202-8.191-.606-9.018-.404-.826-1.178-1.239-2.32-1.239a3.592 3.592 0 0 1-.343-1.53c0-.474.185-.777.554-.909.369-.132 2.698-.268 6.987-.409.106.81.106 1.846 0 3.112 1.74-1.16 3.415-2.013 5.023-2.558 1.608-.545 3.098-.817 4.47-.817 1.74 0 3.075.303 4.007.91.932.606 1.565 1.375 1.898 2.307 1.583-1.073 3.169-1.877 4.76-2.413 1.59-.536 3.054-.804 4.39-.804 2.162 0 3.836.54 5.023 1.621 1.186 1.081 1.78 3.142 1.78 6.183 0 9.458.136 14.467.408 15.03.273.562.901.835 1.886.817.193.51.29 1.02.29 1.53 0 .474-.15.79-.449.949-.298.158-.852.237-1.66.237-2.444 0-3.938-.03-4.483-.092-.545-.062-.914-.246-1.108-.554-.193-.308-.29-.822-.29-1.542v-11.365c0-3.62-.382-6.029-1.147-7.224-.764-1.196-2-1.793-3.704-1.793-1.108 0-2.193.413-3.257 1.239-1.063.826-1.595 2.311-1.595 4.456zm36.701 13.87c2.004 0 3.454-.757 4.35-2.268.897-1.512 1.346-3.841 1.346-6.988 0-3.62-.462-6.31-1.385-8.068s-2.509-2.637-4.759-2.637c-2.004 0-3.454.756-4.35 2.268-.897 1.511-1.345 3.85-1.345 7.013 0 3.604.461 6.285 1.384 8.042.923 1.758 2.51 2.637 4.76 2.637zm-1.002 3.532c-3.814 0-6.618-1.01-8.41-3.032-1.794-2.021-2.69-5.071-2.69-9.15 0-4.693 1.085-8.34 3.256-10.942 2.171-2.601 5.304-3.902 9.4-3.902 3.814 0 6.618 1.01 8.411 3.032 1.793 2.022 2.69 5.08 2.69 9.176 0 4.676-1.086 8.314-3.257 10.916-2.17 2.602-5.304 3.902-9.4 3.902zm31.48-23.493c-2.109 0-3.634.734-4.574 2.202s-1.41 4.003-1.41 7.607c0 3.164.448 5.647 1.344 7.449.896 1.801 2.408 2.702 4.535 2.702 1.125 0 2.153-.224 3.085-.672.932-.448 1.569-1.037 1.912-1.767.343-.73.514-2.527.514-5.392v-10.758c-.633-.351-1.402-.668-2.307-.949-.906-.281-1.938-.422-3.098-.422zm6.144 20.857c-1.6.949-3.094 1.626-4.482 2.03a15.296 15.296 0 0 1-4.298.606c-2.988 0-5.287-.896-6.895-2.69-1.609-1.792-2.413-4.903-2.413-9.333 0-4.887 1.073-8.609 3.217-11.167 2.145-2.557 5.353-3.836 9.624-3.836 1.02 0 1.872.053 2.558.158.685.106 1.336.237 1.95.396 0-1.301-.03-2.694-.091-4.18-.062-1.485-.185-2.535-.37-3.15-.184-.616-.492-1.011-.922-1.187-.431-.176-.98-.264-1.648-.264a4.138 4.138 0 0 1-.343-1.608c0-.545.22-.888.66-1.028.439-.14 1.889-.211 4.35-.211 1.388 0 2.329.066 2.821.198.492.131.773.377.844.738.07.36.105.98.105 1.859V357.1c0 6.714.154 10.626.462 11.733.307 1.107.786 1.59 1.437 1.45.246.404.369.8.369 1.187 0 .492-.585.958-1.754 1.397-1.169.44-2.122.66-2.86.66-.44 0-.81-.154-1.108-.462-.299-.308-.703-1.033-1.213-2.175zm25.653-20.857c-1.757 0-3.093.629-4.007 1.885-.915 1.257-1.416 3.222-1.503 5.894h2.715c2.883 0 4.848-.058 5.893-.172 1.046-.114 1.653-.303 1.82-.567.167-.263.25-.756.25-1.476 0-1.74-.44-3.103-1.318-4.087-.879-.985-2.162-1.477-3.85-1.477zm1.002-3.533c3.27 0 5.696.773 7.278 2.32 1.582 1.547 2.373 4.096 2.373 7.647 0 1.564-.282 2.654-.844 3.27-.563.615-1.793.922-3.691.922h-11.655c.035 2.865.611 5.115 1.727 6.75 1.117 1.635 3.09 2.452 5.92 2.452 2.636 0 5.089-.685 7.356-2.056.756.756 1.134 1.555 1.134 2.4 0 1.177-.971 2.003-2.914 2.478-1.942.474-4.135.712-6.578.712-4.5 0-7.73-.954-9.69-2.861-1.96-1.908-2.94-5.12-2.94-9.638 0-4.447 1.103-7.958 3.309-10.533 2.206-2.575 5.278-3.863 9.215-3.863zm16.715 1.714c0-.475.185-.778.554-.91.369-.132 2.698-.268 6.987-.409.105.81.105 1.89 0 3.244 1.951-1.319 3.828-2.233 5.63-2.743 1.801-.51 3.44-.764 4.917-.764.492 0 .822.057.989.171.167.114.25.365.25.752 0 .756-.119 1.564-.356 2.425-.237.862-.523 1.407-.857 1.635-.334.229-.887.405-1.66.528-.774.123-1.227.149-1.359.079-.132-.07-.532-.554-1.2-1.45-1.564 0-2.83.496-3.796 1.49-.967.992-1.45 2.992-1.45 5.998.017 5.396.087 9.404.21 12.023h3.718c.211.457.317.95.317 1.477 0 .474-.097.8-.29.975-.194.176-.563.264-1.108.264h-11.153c-.229-.563-.343-1.09-.343-1.582 0-.387.097-.672.29-.857.193-.185.51-.277.95-.277h1.819c.14-2.619.21-6.047.21-10.283 0-5.186-.202-8.191-.606-9.018-.404-.826-1.178-1.239-2.32-1.239a3.592 3.592 0 0 1-.343-1.53zm32.192 1.793c1.74-1.16 3.459-2.013 5.155-2.558 1.696-.545 3.212-.817 4.548-.817 2.338 0 4.1.54 5.287 1.621 1.186 1.081 1.78 3.142 1.78 6.183 0 9.458.136 14.467.408 15.03.273.562.901.835 1.886.817.193.51.29 1.02.29 1.53 0 .474-.15.79-.449.949-.298.158-.852.237-1.66.237-2.444 0-3.938-.03-4.483-.092-.545-.062-.914-.246-1.107-.554-.194-.308-.29-.822-.29-1.542v-11.365c0-3.62-.383-6.029-1.148-7.224-.764-1.196-1.999-1.793-3.704-1.793-1.46 0-2.72.413-3.784 1.239-1.063.826-1.595 2.311-1.595 4.456v5.563c0 3.112.062 5.977.185 8.596h2.926c.211.457.317.95.317 1.477 0 .474-.097.8-.29.975-.194.176-.563.264-1.108.264h-10.362c-.229-.563-.343-1.09-.343-1.582 0-.387.097-.672.29-.857.194-.185.51-.277.95-.277h1.819c.14-2.795.21-6.222.21-10.283 0-5.186-.201-8.191-.606-9.018-.404-.826-1.177-1.239-2.32-1.239a3.592 3.592 0 0 1-.343-1.53c0-.474.185-.777.554-.909.369-.132 2.698-.268 6.987-.409.106.81.106 1.846 0 3.112zm27.763 7.119h13.342c.228.615.342 1.371.342 2.268 0 .703-.132 1.173-.395 1.41-.264.237-.747.356-1.45.356H260.59a8.032 8.032 0 0 1-.317-2.267c0-.721.128-1.196.383-1.424.255-.229.637-.343 1.147-.343zm28.105-7.12c1.74-1.16 3.459-2.012 5.155-2.557 1.696-.545 3.212-.817 4.548-.817 2.338 0 4.1.54 5.287 1.621 1.186 1.081 1.78 3.142 1.78 6.183 0 9.458.136 14.467.408 15.03.273.562.901.835 1.886.817.193.51.29 1.02.29 1.53 0 .474-.15.79-.449.949-.298.158-.852.237-1.66.237-2.444 0-3.938-.03-4.483-.092-.545-.062-.914-.246-1.108-.554-.193-.308-.29-.822-.29-1.542v-11.365c0-3.62-.382-6.029-1.147-7.224-.764-1.196-2-1.793-3.704-1.793-1.46 0-2.72.413-3.784 1.239-1.063.826-1.595 2.311-1.595 4.456v5.563c0 3.112.061 5.977.184 8.596h2.927c.211.457.317.95.317 1.477 0 .474-.097.8-.29.975-.194.176-.563.264-1.108.264h-10.362c-.229-.563-.343-1.09-.343-1.582 0-.387.097-.672.29-.857.193-.185.51-.277.95-.277h1.819c.14-2.795.21-6.222.21-10.283 0-5.186-.202-8.191-.606-9.018-.404-.826-1.178-1.239-2.32-1.239a3.592 3.592 0 0 1-.343-1.53c0-.474.185-.777.554-.909.369-.132 2.698-.268 6.987-.409.106.81.106 1.846 0 3.112zm38.336 19.987c2.004 0 3.454-.756 4.35-2.267.897-1.512 1.345-3.841 1.345-6.988 0-3.62-.461-6.31-1.384-8.068-.923-1.758-2.51-2.637-4.76-2.637-2.003 0-3.453.756-4.35 2.268-.896 1.511-1.345 3.85-1.345 7.013 0 3.604.462 6.285 1.385 8.042.922 1.758 2.509 2.637 4.759 2.637zm-1.002 3.533c-3.815 0-6.618-1.01-8.411-3.032-1.793-2.021-2.69-5.071-2.69-9.15 0-4.693 1.086-8.34 3.257-10.942 2.17-2.601 5.304-3.902 9.4-3.902 3.814 0 6.618 1.01 8.41 3.032 1.794 2.022 2.69 5.08 2.69 9.176 0 4.676-1.085 8.314-3.256 10.916-2.171 2.602-5.304 3.902-9.4 3.902zm19.536-25.312c0-.475.184-.778.554-.91.369-.132 2.698-.268 6.987-.409.105.81.105 1.89 0 3.244 1.951-1.319 3.828-2.233 5.63-2.743 1.801-.51 3.44-.764 4.917-.764.492 0 .822.057.989.171.167.114.25.365.25.752 0 .756-.119 1.564-.356 2.425-.237.862-.523 1.407-.857 1.635-.334.229-.888.405-1.661.528s-1.226.149-1.358.079c-.132-.07-.532-.554-1.2-1.45-1.564 0-2.83.496-3.796 1.49-.967.992-1.45 2.992-1.45 5.998.017 5.396.087 9.404.21 12.023h3.718c.211.457.316.95.316 1.477 0 .474-.096.8-.29.975-.193.176-.562.264-1.107.264h-11.153c-.229-.563-.343-1.09-.343-1.582 0-.387.097-.672.29-.857.193-.185.51-.277.95-.277h1.818c.141-2.619.211-6.047.211-10.283 0-5.186-.202-8.191-.606-9.018-.404-.826-1.178-1.239-2.32-1.239a3.592 3.592 0 0 1-.343-1.53zm48.434 7.91c0 7.365.062 12.085.185 14.16h2.795c.228.456.343.948.343 1.476 0 .474-.097.8-.29.975-.194.176-.572.264-1.134.264h-9.308c-.21-.563-.316-1.09-.316-1.582 0-.387.092-.672.277-.857.184-.185.505-.277.962-.277h.896c.123-2.584.185-6.196.185-10.837 0-3.62-.382-6.029-1.147-7.224-.765-1.196-2-1.793-3.705-1.793-1.107 0-2.192.413-3.256 1.239-1.063.826-1.595 2.311-1.595 4.456v5.563c0 3.112.061 5.977.184 8.596h2.136c.211.457.317.95.317 1.477 0 .474-.097.8-.29.975-.194.176-.563.264-1.108.264h-9.571c-.229-.563-.343-1.09-.343-1.582 0-.387.097-.672.29-.857.193-.185.51-.277.95-.277h1.819c.14-2.795.21-6.222.21-10.283 0-5.186-.202-8.191-.606-9.018-.404-.826-1.178-1.239-2.32-1.239a3.592 3.592 0 0 1-.343-1.53c0-.474.185-.777.554-.909.369-.132 2.698-.268 6.987-.409.106.81.106 1.846 0 3.112 1.74-1.16 3.415-2.013 5.023-2.558 1.608-.545 3.098-.817 4.47-.817 1.74 0 3.075.303 4.007.91.932.606 1.565 1.375 1.899 2.307 1.582-1.073 3.168-1.877 4.759-2.413 1.59-.536 3.054-.804 4.39-.804 2.162 0 3.836.54 5.023 1.621 1.186 1.081 1.78 3.142 1.78 6.183 0 9.458.136 14.467.408 15.03.273.562.901.835 1.886.817.193.51.29 1.02.29 1.53 0 .474-.15.79-.449.949-.298.158-.852.237-1.66.237-2.444 0-3.938-.03-4.483-.092-.545-.062-.914-.246-1.108-.554-.193-.308-.29-.822-.29-1.542v-11.365c0-3.62-.382-6.029-1.147-7.224-.764-1.196-2-1.793-3.704-1.793-1.108 0-2.193.413-3.257 1.239-1.063.826-1.595 2.311-1.595 4.456zm40.498 14.766a20 20 0 0 1-4.548 1.964c-1.556.448-3.08.672-4.575.672-2.373 0-4.14-.558-5.3-1.674-1.16-1.116-1.74-2.773-1.74-4.97 0-2.69.958-4.746 2.874-6.17 1.916-1.424 4.878-2.136 8.886-2.136h3.876c-.106-3.094-.55-5.247-1.332-6.46s-2.166-1.82-4.153-1.82a14.19 14.19 0 0 0-3.032.317c-.51 1.02-.813 1.565-.91 1.635-.096.07-.601.224-1.516.461-.914.238-1.55.194-1.911-.131-.36-.326-.73-.919-1.108-1.78-.378-.862-.566-1.556-.566-2.083 0-.352.145-.624.435-.818.29-.193 1.472-.43 3.546-.711a49.3 49.3 0 0 1 6.618-.422c3.111 0 5.41.536 6.895 1.608 1.485 1.072 2.228 3.041 2.228 5.906v8.121c0 3.762.163 6.056.488 6.882.325.826.866 1.16 1.622 1.002.21.387.316.765.316 1.134 0 .598-.374 1.055-1.12 1.371-.748.316-1.754.475-3.02.475-.615 0-1.085-.075-1.41-.224-.326-.15-.84-.866-1.543-2.15zm-.527-8.912a27.273 27.273 0 0 0-4.694-.396c-2.003 0-3.405.334-4.205 1.002-.8.668-1.2 1.723-1.2 3.164 0 1.406.356 2.465 1.068 3.177.712.712 1.815 1.068 3.31 1.068 1.16 0 2.24-.228 3.242-.685 1.002-.457 1.666-1.095 1.991-1.912.325-.817.488-2.105.488-3.863v-1.555zm17.268-4.087c0-7.436-.035-12.169-.105-14.2-.07-2.03-.198-3.352-.383-3.967-.184-.616-.487-1.011-.91-1.187-.421-.176-.975-.264-1.66-.264a4.138 4.138 0 0 1-.343-1.608c0-.545.224-.888.672-1.028.448-.14 1.894-.211 4.338-.211 1.388 0 2.329.066 2.82.198.493.131.774.377.845.738.07.36.105.98.105 1.859v22.069c.018 4.219.088 7.55.211 9.993h2.927c.21.457.316.95.316 1.477 0 .474-.096.8-.29.975-.193.176-.562.264-1.107.264h-10.494c-.229-.563-.343-1.09-.343-1.582 0-.387.097-.672.29-.857.193-.185.51-.277.95-.277h1.95c.14-2.443.211-6.574.211-12.392zm20.116-15.504c-1.142 0-1.986-.238-2.531-.712-.545-.475-.817-1.16-.817-2.057.017-.967.369-1.74 1.054-2.32.686-.58 1.653-.87 2.9-.87 1.231 0 2.11.25 2.637.751.528.501.791 1.174.791 2.017 0 .95-.325 1.719-.975 2.307-.65.59-1.67.884-3.059.884zm3.744 27.896h2.795c.229.457.343.95.343 1.477 0 .474-.097.8-.29.975-.193.176-.571.264-1.134.264h-10.362c-.211-.563-.316-1.09-.316-1.582 0-.387.092-.672.276-.857.185-.185.506-.277.963-.277h1.951c.123-2.443.185-5.308.185-8.596 0-4.007-.031-6.684-.093-8.028-.061-1.345-.206-2.272-.435-2.782-.228-.51-.55-.826-.962-.95-.413-.122-.927-.184-1.543-.184-.228-.369-.342-.8-.342-1.292 0-.72.342-1.16 1.028-1.318.685-.158 2.013-.238 3.981-.238 1.389 0 2.33.066 2.822.198s.773.378.843.739c.07.36.106.98.106 1.858v11.997c0 3.288.061 6.153.184 8.596zm29.345-21.647c0 .756-.422 1.753-1.266 2.992-.843 1.24-2.091 3.12-3.744 5.643a433.573 433.573 0 0 0-4.838 7.554c-1.573 2.514-2.395 4.245-2.465 5.195h4.772c2.145 0 4.755-.598 7.831-1.793.457.914.686 1.845.686 2.794 0 .721-.22 1.23-.66 1.53-.44.299-1.327.448-2.663.448h-16.268c-1.125 0-1.688-.475-1.688-1.424 0-.527.229-1.138.686-1.832.457-.695 1.916-2.782 4.377-6.263 2.46-3.48 4.32-6.249 5.576-8.305 1.257-2.057 2.14-3.736 2.65-5.036h-6.486c-1.178 0-3.05.641-5.616 1.924-.739-1.054-1.108-2.1-1.108-3.137 0-.615.176-1.064.528-1.345.351-.281 1.01-.422 1.977-.422h15.715c.738 0 1.257.11 1.556.33.299.22.448.602.448 1.147zm19.088 1.397c-1.758 0-3.094.629-4.008 1.885-.914 1.257-1.415 3.222-1.503 5.894h2.716c2.883 0 4.847-.058 5.893-.172 1.046-.114 1.652-.303 1.82-.567.166-.263.25-.756.25-1.476 0-1.74-.44-3.103-1.319-4.087-.879-.985-2.162-1.477-3.85-1.477zm1.002-3.533c3.27 0 5.695.773 7.277 2.32 1.582 1.547 2.373 4.096 2.373 7.647 0 1.564-.281 2.654-.844 3.27-.562.615-1.793.922-3.691.922h-11.654c.035 2.865.61 5.115 1.727 6.75 1.116 1.635 3.089 2.452 5.92 2.452 2.636 0 5.088-.685 7.356-2.056.755.756 1.133 1.555 1.133 2.4 0 1.177-.97 2.003-2.913 2.478-1.943.474-4.135.712-6.579.712-4.5 0-7.73-.954-9.69-2.861-1.96-1.908-2.94-5.12-2.94-9.638 0-4.447 1.103-7.958 3.31-10.533 2.205-2.575 5.277-3.863 9.215-3.863z"/>
		<path fill="#50E3C2" d="m302.96 50.24 112.744 112.744c2.082 2.082 2.62 3.054 2.975 4.222a6.003 6.003 0 0 1 0 3.532c-.355 1.168-.893 2.14-2.975 4.222L302.96 287.704c-2.082 2.082-3.054 2.62-4.222 2.975a6.003 6.003 0 0 1-3.532 0c-1.168-.355-2.14-.893-4.222-2.975L178.24 174.96c-2.082-2.082-2.62-3.054-2.974-4.222a6.003 6.003 0 0 1 0-3.532c.354-1.168.892-2.14 2.974-4.222L290.984 50.24c2.082-2.082 3.054-2.62 4.222-2.974a6.003 6.003 0 0 1 3.532 0c1.168.354 2.14.892 4.222 2.974z"/>
		<path fill="#3A1D52" d="m280.833 149.56 11.982 10.644c9.852 4.936 19.915 2.05 30.391 3.641a182.185 182.185 0 0 1-12.685-11.14 203.5 203.5 0 0 1-6.124-6.17c-1.95-2.05-4.214-3.993-3.55-6.629.426-1.835 2.104-3.282 4.66-3.716 2.996-.51 5.83.01 8.078 1.511 1.143.763 1.867 1.824 2.706 2.757a189.1 189.1 0 0 0 7.812 8.184c3.437 3.39 7.049 6.689 10.774 9.919a374.903 374.903 0 0 0 5.805 4.923 591.17 591.17 0 0 0 4.652 3.83l.783.638c.215.175.824.522.904.736.008.309-.73.757-1.016.99a682.799 682.799 0 0 0-4.795 3.938 392.91 392.91 0 0 0-5.838 4.933c-3.734 3.225-7.359 6.515-10.81 9.897a188.36 188.36 0 0 0-7.816 8.13c-.834.922-1.568 1.983-2.557 2.82-1.912 1.62-4.947 2.46-7.878 2.078-1.401-.182-2.623-.473-3.64-1.208-.88-.636-1.46-1.439-1.735-2.308-.29-.921-.306-1.888.044-2.803.412-1.077 1.363-1.97 2.22-2.884a208.397 208.397 0 0 1 5.646-5.803 182.604 182.604 0 0 1 14.36-12.775c-9.901 1.504-23.074-.813-29.998 3.221-1.105.644-2.118 1.571-2.874 2.346-1.007 1.032-2.191 1.903-3.282 2.89a204.234 204.234 0 0 0-9.216 8.844c-2.537 2.6-4.677 5.967-7.76 8.232-2.768 2.035-8.068 2.728-11.134.585-3.838-2.684-1.209-6.171 1.22-8.729a205.165 205.165 0 0 1 8.511-8.489c3.025-2.834 6.202-5.57 9.462-8.266 2.896-2.394 5.813-4.809 10.317-5.551-7.004-1.153-11.862-6.702-16.103-10.464-4.786-4.246-9.409-8.663-13.527-13.26-4.125-4.606.693-10.618 8.58-8.07 3.435 1.109 4.945 3.738 6.92 5.876a187.963 187.963 0 0 0 6.511 6.703z"/>
	</g>
</svg>
